<?xml version="1.0"?>
<svg xmlns="http://www.w3.org/2000/svg" viewBox="0 0 80 80">
    <path d="M 18 10 C 15.250484 10 13 12.250484 13 15 C 13 15.421774 13.100349 15.78525 13.193359 16.146484 A 1.0001 1.0001 0 0 0 13.236328 16.517578 L 24.324219 51.257812 C 24.324624 51.259213 24.325397 51.260466 24.326172 51.261719 A 1 1 0 0 0 24 52 A 1 1 0 0 0 25 53 A 1 1 0 0 0 25.074219 52.996094 C 25.416881 53.590029 25.83729 54.14979 26.34375 54.65625 C 27.773511 56.086468 29.620831 56.85806 31.496094 56.976562 L 28.333984 64.390625 A 1.0001 1.0001 0 0 0 28.255859 64.804688 C 28.131786 65.187607 28 65.571207 28 66 C 28 68.197334 29.802666 70 32 70 L 51 70 C 53.197334 70 55 68.197334 55 66 C 55 65.366758 54.841217 64.777403 54.59375 64.265625 L 51.509766 57 L 52 57 C 54.409246 57 56.435807 55.271651 56.900391 52.994141 A 1 1 0 0 0 57 53 A 1 1 0 0 0 58 52 A 1 1 0 0 0 57 51 A 1 1 0 0 0 56.900391 51.005859 C 56.435807 48.728349 54.409246 47 52 47 L 33.462891 47 L 31.867188 42 L 43 42 L 43.5 42 L 46 42 A 1.0001 1.0001 0 0 0 47 41 L 47 38.5 C 47 36.578812 45.421188 35 43.5 35 L 29.632812 35 L 26.582031 25.441406 C 26.615781 25.442506 26.639818 25.470703 26.673828 25.470703 C 28.318798 25.470703 29.673828 24.115673 29.673828 22.470703 C 29.673828 22.043511 29.580988 21.637152 29.423828 21.275391 L 29.455078 21.357422 L 27.568359 15.707031 L 27.59375 15.798828 C 27.287774 14.466932 26.091044 13.472656 24.675781 13.472656 C 24.020293 13.472656 23.484301 13.812852 22.988281 14.175781 L 22.763672 13.476562 A 1.0001 1.0001 0 0 0 22.369141 12.955078 C 21.568264 11.267632 19.987448 10 18 10 z M 58 10 C 53.593562 10 50 13.593562 50 18 L 50 24 C 50 28.406438 53.593562 32 58 32 A 1.0001 1.0001 0 0 0 58.359375 31.927734 C 62.590681 31.728392 66 28.279161 66 24 L 66 18 C 66 13.71951 62.588612 10.269614 58.355469 10.072266 A 1.0001 1.0001 0 0 0 58 10 z M 18 12 C 19.343666 12 20.450558 12.879209 20.839844 14.09375 A 1.0001 1.0001 0 0 0 20.919922 14.273438 A 1.0001 1.0001 0 0 0 20.919922 14.275391 L 21.722656 16.777344 A 1.0001 1.0001 0 0 0 23.675781 16.472656 C 23.675781 15.907626 24.110751 15.472656 24.675781 15.472656 C 25.160518 15.472656 25.542507 15.80199 25.644531 16.246094 A 1.0001 1.0001 0 0 0 25.671875 16.339844 L 27.558594 21.990234 A 1.0001 1.0001 0 0 0 27.589844 22.072266 C 27.644684 22.198504 27.673828 22.329896 27.673828 22.470703 C 27.673828 23.035733 27.238858 23.470703 26.673828 23.470703 C 26.247611 23.470703 25.8998 23.21408 25.75 22.851562 A 1.0001 1.0001 0 0 0 23.873047 23.537109 L 27.533203 35 L 27.5 35 C 25.578812 35 24 36.578812 24 38.5 C 24 40.421188 25.578812 42 27.5 42 L 29.767578 42 L 31.779297 48.304688 A 1.0001 1.0001 0 0 0 32.732422 49 L 52 49 C 53.668484 49 55 50.331516 55 52 C 55 53.668484 53.668484 55 52 55 L 50 55 L 33 55 L 32 55 C 30.462092 55 28.933752 54.418987 27.757812 53.242188 C 27.018997 52.503371 26.517551 51.627821 26.244141 50.695312 A 1.0001 1.0001 0 0 0 26.236328 50.671875 L 15.197266 16.078125 A 1.0001 1.0001 0 0 0 15.158203 15.904297 C 15.057176 15.587149 15 15.291925 15 15 C 15 13.331516 16.331516 12 18 12 z M 58 12 C 61.325562 12 64 14.674438 64 18 A 1 1 0 0 0 63 19 A 1 1 0 0 0 64 20 L 64 24 C 64 27.325562 61.325562 30 58 30 C 54.674438 30 52 27.325562 52 24 L 52 20 A 1 1 0 0 0 53 19 A 1 1 0 0 0 52 18 C 52 14.674438 54.674438 12 58 12 z M 56 18 A 1 1 0 0 0 55 19 A 1 1 0 0 0 56 20 A 1 1 0 0 0 57 19 A 1 1 0 0 0 56 18 z M 60 18 A 1 1 0 0 0 59 19 A 1 1 0 0 0 60 20 A 1 1 0 0 0 61 19 A 1 1 0 0 0 60 18 z M 24 19.001953 A 1 1 0 0 0 23 20.001953 A 1 1 0 0 0 24 21.001953 A 1 1 0 0 0 25 20.001953 A 1 1 0 0 0 24 19.001953 z M 27.5 37 L 43.5 37 C 44.340812 37 45 37.659188 45 38.5 L 45 40 L 43.5 40 L 43 40 L 27.5 40 C 26.659188 40 26 39.340812 26 38.5 C 26 37.659188 26.659188 37 27.5 37 z M 13 51 A 1 1 0 0 0 12 52 A 1 1 0 0 0 13 53 A 1 1 0 0 0 14 52 A 1 1 0 0 0 13 51 z M 21 51 A 1 1 0 0 0 20 52 A 1 1 0 0 0 21 53 A 1 1 0 0 0 22 52 A 1 1 0 0 0 21 51 z M 61 51 A 1 1 0 0 0 60 52 A 1 1 0 0 0 61 53 A 1 1 0 0 0 62 52 A 1 1 0 0 0 61 51 z M 65 51 A 1 1 0 0 0 64 52 A 1 1 0 0 0 65 53 A 1 1 0 0 0 66 52 A 1 1 0 0 0 65 51 z M 69 51 A 1 1 0 0 0 68 52 A 1 1 0 0 0 69 53 A 1 1 0 0 0 70 52 A 1 1 0 0 0 69 51 z M 33.660156 57 L 49.337891 57 L 52.773438 65.091797 A 1.0001 1.0001 0 0 0 52.792969 65.136719 C 52.927502 65.414943 53 65.697242 53 66 C 53 67.116666 52.116666 68 51 68 L 32 68 C 30.883334 68 30 67.116666 30 66 C 30 65.715945 30.06238 65.446342 30.173828 65.193359 A 1.0001 1.0001 0 0 0 30.105469 64.261719 L 30.376953 64.695312 L 33.660156 57 z"/>
</svg>
