<svg class="svg-icon" style="width: 1em; height: 1em;vertical-align: middle;fill: currentColor;overflow: hidden;" viewBox="0 0 1024 1024" version="1.1" xmlns="http://www.w3.org/2000/svg"><path d="M787.968 548.3008c64.6912 0.64 108.032 49.4336 108.032 106.9312v258.304c0 51.456-38.7328 85.2224-86.1952 84.864-47.4112-0.3584-85.7856-34.6112-85.7856-86.272v-185.6h-195.456c-63.8464 0-109.568-40.0896-120.6272-94.592l-58.8288-167.6032c-25.2416-156.6208 205.9008-200.8832 241.8688-46.7968l43.9296 130.7648h153.088z m-171.4688 51.2a25.6 25.6 0 0 1-24.2688-17.4592l-50.432-150.528c-21.6832-92.4928-156.8512-66.6112-143.2832 20.1984l58.624 166.5024c7.2192 34.816 32.6656 57.1136 71.424 57.1136h221.056a25.6 25.6 0 0 1 25.6 25.6v211.2c0 22.0672 14.3872 34.9184 34.9696 35.072 20.4288 0.1536 34.6112-12.2112 34.6112-33.6384V655.232c0-30.7712-22.3232-55.7056-56.832-55.7056l-171.4688-0.0256z" fill="#979797" /><path d="M560.7424 282.7008a138.9568 138.9568 0 0 1-120.0128 68.48c-76.544 0-138.6752-61.3376-138.6752-137.1904S364.2112 76.8 440.7296 76.8a138.9568 138.9568 0 0 1 120.0128 68.48 135.936 135.936 0 0 1 0 137.4208z m-44.1856-25.856a84.736 84.736 0 0 0 0-85.7344A87.7568 87.7568 0 0 0 440.7296 128c-48.384 0-87.4752 38.5792-87.4752 85.9904s39.0912 85.9904 87.4752 85.9904a87.7568 87.7568 0 0 0 75.8272-43.1104zM494.336 738.816h137.856c42.0608 0 70.3744 30.8736 70.4768 68.992 0.1024 38.0416-27.9552 69.12-69.6832 69.12h-165.9136c-91.9808 0-123.8784-13.7728-152.8832-72.576-5.376-10.9056-10.8288-23.6544-17.7408-41.2928-4.1216-10.496-21.1968-55.3984-20.5568-53.6832L182.272 464.9216c-24.4736-74.2912 89.216-118.144 124.5696-42.24a179405.6192 179405.6192 0 0 1 97.5104 240.0256c1.6896 4.224 9.6256 24.1152 11.5968 28.9536 3.712 9.1136 6.5024 15.488 9.088 20.736 11.392 23.2192 18.688 26.4192 69.2992 26.4192z m0 51.2c-68.1472 0-93.7472-11.264-115.2512-55.0144-3.2-6.528-6.4-13.9008-10.5472-24.0128l-11.6736-29.1328c-9.088-22.5536-24.2688-59.9808-43.8272-108.1344l-36.9152-90.7264c-13.3632-32.7936-13.3632-32.7936-16.1792-39.8336-7.8336-16.8192-33.2544-7.0144-29.44 4.608l93.2096 243.3024c-0.5632-1.4848 16.384 43.0848 20.4032 53.2992 6.4256 16.384 11.3664 27.9552 15.9744 37.3248 18.816 38.144 32.4864 44.032 106.9824 44.032h165.9136c12.1856 0 18.5088-6.9888 18.4832-17.7664-0.0256-10.88-6.528-17.9456-19.2768-17.9456H494.336z" fill="#979797" /></svg>